<?xml version="1.0" standalone="no"?>
<!DOCTYPE svg PUBLIC "-//W3C//DTD SVG 20010904//EN"
 "http://www.w3.org/TR/2001/REC-SVG-20010904/DTD/svg10.dtd">
<svg version="1.0" xmlns="http://www.w3.org/2000/svg"
 width="396.000000pt" height="396.000000pt" viewBox="0 0 396.000000 396.000000"
 preserveAspectRatio="xMidYMid meet">
<metadata>
Created by potrace 1.11, written by Peter Selinger 2001-2013
</metadata>
<g transform="translate(0.000000,396.000000) scale(0.100000,-0.100000)"
fill="#000000" stroke="none">
<path d="M1910 3832 c-138 -10 -318 -48 -455 -95 -220 -75 -270 -112 -234
-178 22 -42 54 -42 157 0 98 39 216 78 262 87 14 3 45 10 70 15 25 6 63 13 85
16 22 2 68 8 102 12 69 8 287 6 348 -3 22 -4 56 -9 75 -12 94 -14 260 -58 328
-86 15 -6 32 -12 37 -13 6 -2 46 -20 90 -41 415 -196 736 -549 889 -979 101
-283 126 -601 70 -885 -8 -41 -17 -85 -20 -98 -2 -12 -20 -70 -40 -130 -156
-478 -525 -867 -999 -1055 -96 -37 -250 -81 -325 -92 -25 -3 -62 -10 -82 -14
-40 -9 -414 -7 -464 2 -325 61 -544 153 -779 327 -85 62 -212 181 -280 261
-191 223 -334 525 -380 798 -3 19 -7 37 -9 40 -7 12 -19 168 -19 261 -1 89 8
217 17 266 3 12 7 39 10 60 14 86 71 281 87 299 5 5 9 15 9 23 0 16 109 240
119 247 4 2 7 -76 6 -173 0 -155 2 -178 18 -199 22 -28 57 -30 87 -5 23 18 23
23 24 230 0 117 2 212 3 212 2 0 69 -67 150 -150 157 -161 179 -174 223 -130
41 41 32 56 -162 251 -54 54 -98 100 -98 103 0 2 95 4 212 4 208 -1 212 -1
230 22 24 29 23 63 -3 86 -19 17 -39 19 -250 19 -126 0 -229 3 -229 6 0 13
160 159 233 213 84 62 84 62 91 99 6 36 -27 77 -62 77 -32 0 -161 -94 -268
-193 l-71 -66 0 172 c-1 227 -1 231 -16 250 -20 27 -60 31 -87 9 -24 -20 -24
-20 -25 -225 0 -113 -3 -208 -6 -211 -3 -3 -68 57 -144 134 -76 77 -147 142
-156 145 -19 6 -59 -10 -71 -29 -24 -36 -7 -61 149 -218 l157 -158 -34 -1
c-19 -1 -107 -1 -195 -1 -88 1 -174 -4 -192 -9 -33 -11 -49 -43 -36 -76 15
-39 31 -42 241 -43 111 0 202 -3 202 -6 0 -3 -13 -24 -28 -47 -37 -55 -113
-205 -147 -292 -31 -79 -83 -252 -91 -305 -3 -19 -9 -53 -14 -75 -5 -22 -12
-76 -16 -120 -85 -902 475 -1719 1350 -1970 92 -26 109 -30 185 -41 25 -4 55
-9 66 -12 38 -9 420 -10 475 -1 259 43 428 96 614 191 499 256 860 731 971
1278 18 89 19 92 31 205 12 117 6 339 -12 440 -49 274 -118 466 -240 670 -71
118 -78 129 -84 135 -3 3 -28 34 -55 70 -55 72 -206 227 -274 280 -24 19 -48
40 -55 46 -28 26 -172 118 -257 163 -196 104 -429 177 -659 206 -57 7 -288 12
-350 7z"/>
<path d="M1881 2147 l-180 -179 181 -181 180 -181 179 181 180 181 -180 179
-181 180 -179 -180z m178 76 c-12 -14 -12 -16 0 -8 11 6 13 4 8 -8 -8 -20 3
-22 23 -4 12 10 12 9 2 -4 -6 -9 -8 -20 -4 -24 4 -5 1 -5 -5 -1 -7 4 -13 3
-13 -1 0 -5 6 -15 13 -22 10 -11 9 -12 -3 -6 -8 5 -12 5 -8 0 4 -4 2 -15 -5
-24 -10 -14 -10 -14 4 -3 14 10 18 10 23 -3 3 -9 2 -13 -4 -10 -5 3 -8 -4 -7
-15 1 -11 8 -20 17 -21 10 0 11 -2 3 -6 -18 -7 -16 -42 3 -50 38 -14 -18 -22
-155 -22 l-144 0 34 33 c19 19 37 32 42 29 4 -2 6 1 5 8 -2 7 7 18 20 24 13 7
24 16 25 21 1 5 5 8 10 6 4 -1 6 2 5 6 -3 10 103 121 116 122 5 0 2 -8 -5 -17z
m56 -63 c3 -5 1 -10 -4 -10 -6 0 -11 5 -11 10 0 6 2 10 4 10 3 0 8 -4 11 -10z
m27 -12 c-15 -15 -16 -32 -2 -23 6 3 10 1 10 -4 0 -14 -17 -14 -25 -1 -6 10
11 40 23 40 3 0 1 -5 -6 -12z m-17 -60 c-9 -6 -19 -7 -22 -4 -4 3 -1 6 6 6 7
0 9 4 6 10 -4 6 1 7 11 3 15 -6 15 -7 -1 -15z m47 15 c-6 -2 -9 -10 -6 -15 4
-7 2 -8 -5 -4 -13 9 -5 26 12 25 9 0 8 -2 -1 -6z m45 -35 c-3 -8 -6 -5 -6 6
-1 11 2 17 5 13 3 -3 4 -12 1 -19z m-31 -31 c2 -12 0 -16 -2 -9 -3 6 -10 10
-15 6 -5 -3 -9 0 -9 5 0 6 5 11 11 11 5 0 7 6 3 13 -4 6 -3 9 1 4 5 -4 10 -18
11 -30z m-57 16 c-3 -21 2 -33 13 -27 7 5 8 3 4 -5 -6 -9 -12 -8 -26 6 -12 12
-14 20 -6 25 14 10 16 10 15 1z m124 -20 c-5 -12 -3 -14 7 -8 9 6 11 4 5 -4
-5 -9 -11 -9 -17 -3 -6 6 -7 15 -4 21 11 17 16 13 9 -6z m-46 -22 c0 -11 -5
-18 -9 -15 -4 3 -5 11 -1 19 7 21 12 19 10 -4z m93 -7 c0 -8 -19 -13 -24 -6
-3 5 1 9 9 9 8 0 15 -2 15 -3z m-330 -105 c0 -5 -4 -8 -9 -4 -5 3 -12 1 -16
-5 -3 -5 -14 -10 -23 -10 -12 0 -10 4 8 14 31 18 40 19 40 5z m208 -93 c-58
-59 -107 -106 -109 -106 -10 0 -4 40 6 41 5 0 1 4 -10 9 -15 7 -16 9 -4 9 9 1
23 9 30 18 8 9 9 14 4 11 -6 -4 -17 -3 -25 3 -11 6 -12 9 -2 9 7 0 10 5 7 10
-3 6 1 13 11 17 14 5 13 8 -7 20 l-24 14 24 -7 c16 -4 21 -3 16 5 -4 7 -1 18
5 27 11 12 9 14 -11 10 -13 -2 -23 -9 -21 -15 2 -12 -11 -15 -21 -4 -18 18 35
31 132 32 l104 2 -105 -105z m-164 78 c3 -8 2 -12 -4 -9 -6 3 -10 10 -10 16 0
14 7 11 14 -7z m31 -24 c3 -5 1 -10 -4 -10 -6 0 -11 5 -11 10 0 6 2 10 4 10 3
0 8 -4 11 -10z m-34 -23 c-10 -9 -11 -8 -5 6 3 10 9 15 12 12 3 -3 0 -11 -7
-18z m-26 -6 c3 -5 0 -13 -6 -17 -8 -5 -9 -3 -4 6 6 10 4 12 -9 7 -10 -4 -15
-3 -11 3 8 13 22 13 30 1z m41 -10 c-4 -5 -1 -11 6 -13 8 -3 6 -6 -4 -10 -11
-5 -15 -2 -13 10 5 23 4 22 11 22 3 0 3 -4 0 -9z m-26 -20 c0 -5 -7 -12 -16
-15 -14 -5 -15 -4 -4 9 14 17 20 19 20 6z m50 -21 c0 -5 -4 -10 -10 -10 -5 0
-10 5 -10 10 0 6 5 10 10 10 6 0 10 -4 10 -10z m-3 -55 c0 -8 -4 -12 -9 -9 -5
3 -6 10 -3 15 9 13 12 11 12 -6z"/>
<path d="M2029 2183 c-13 -16 -12 -17 4 -4 9 7 17 15 17 17 0 8 -8 3 -21 -13z"/>
<path d="M1985 2140 c-3 -6 1 -7 9 -4 18 7 21 14 7 14 -6 0 -13 -4 -16 -10z"/>
<path d="M2031 2133 c7 -12 15 -20 18 -17 3 2 -3 12 -13 22 -17 16 -18 16 -5
-5z"/>
<path d="M2046 2085 c-18 -14 -18 -14 1 -12 11 0 20 7 20 14 0 7 -1 13 -1 13
-1 0 -9 -7 -20 -15z"/>
<path d="M1909 2063 c-13 -16 -12 -17 4 -4 9 7 17 15 17 17 0 8 -8 3 -21 -13z"/>
<path d="M1959 2068 c-5 -13 -5 -60 0 -63 4 -2 7 12 7 31 0 29 -3 42 -7 32z"/>
<path d="M2014 2040 c0 -13 4 -16 10 -10 7 7 7 13 0 20 -6 6 -10 3 -10 -10z"/>
<path d="M1910 2036 c0 -2 8 -10 18 -17 15 -13 16 -12 3 4 -13 16 -21 21 -21
13z"/>
<path d="M2039 2013 c-13 -16 -12 -17 4 -4 9 7 17 15 17 17 0 8 -8 3 -21 -13z"/>
<path d="M2135 1891 c-3 -5 -2 -12 3 -15 5 -3 9 1 9 9 0 17 -3 19 -12 6z"/>
<path d="M2210 1896 c0 -2 8 -10 18 -17 15 -13 16 -12 3 4 -13 16 -21 21 -21
13z"/>
<path d="M2124 1838 c-12 -14 -13 -18 -3 -10 9 6 18 10 21 7 2 -3 5 2 5 10 0
19 0 19 -23 -7z"/>
<path d="M2135 1810 c-4 -6 -10 -8 -15 -5 -4 3 -7 -3 -5 -12 1 -10 -5 -27 -14
-38 -16 -20 -16 -20 7 -1 12 11 20 21 17 24 -3 3 2 14 12 24 9 10 13 18 10 18
-3 0 -9 -5 -12 -10z"/>
</g>
</svg>
